<svg version="1.1" xmlns="http://www.w3.org/2000/svg" xmlns:xlink="http://www.w3.org/1999/xlink" width="64px" height="64px" viewBox="0,0,256,256"><g fill="none" fill-rule="nonzero" stroke="none" stroke-width="1" stroke-linecap="butt" stroke-linejoin="miter" stroke-miterlimit="10" stroke-dasharray="" stroke-dashoffset="0" font-family="none" font-weight="none" font-size="none" text-anchor="none" style="mix-blend-mode: normal"><g transform="scale(4,4)"><path d="M32,4c-15.46397,0 -28,12.53603 -28,28c0,15.46397 12.53603,28 28,28c15.46397,0 28,-12.53603 28,-28c0,-15.46397 -12.53603,-28 -28,-28z" fill="#c5e4fa"></path><path d="M13.713,53.287c2.627,2.498 5.736,4.49 9.177,5.823l34.11,-34.11v-6.426c-1.058,-1.757 -2.308,-3.384 -3.713,-4.861zM11.763,51.237l39.237,-39.237h-6l-35.779,35.779c0.759,1.219 1.61,2.374 2.542,3.458zM8.795,44.205l33.205,-33.205l-3,-2l-31.636,31.636c0.398,1.229 0.874,2.422 1.431,3.569z" fill="#e3f2ff"></path><path d="M49,54h-34l0.592,-10.245l8.408,-6.755l8,-1l7.333,1l8.075,5.746z" fill="#c2cde7"></path><path d="M32,44c2.983,0 5.688,-1.831 7.683,-4.803c0.583,-0.869 0.332,-2.16 -0.512,-2.64l-0.169,-0.096c-1.851,2.776 -4.294,4.753 -7.002,4.753c-2.708,0 -5.15,-1.977 -7.002,-4.753l-0.169,0.096c-0.844,0.479 -1.095,1.771 -0.512,2.64c1.995,2.972 4.7,4.803 7.683,4.803z" fill="#ced8ea"></path><path d="M23.38,32.417v0c-0.207,0 -0.873,-0.549 -1.221,-1.847c-0.353,-1.318 -0.036,-2.179 0.127,-2.223c0.001,0 1.268,-0.221 1.279,-0.473c0.017,-0.368 0.057,-0.733 0.12,-1.088c0.053,-0.301 0.01,-0.64 -0.056,-1.154c-0.101,-0.791 -0.253,-1.985 -0.089,-3.629c0.225,-2.25 1.543,-3.593 3.539,-3.593c0.152,0 0.3,-0.049 0.422,-0.141c0.967,-0.724 2.901,-1.269 4.499,-1.269h0.705c4.277,0 7.366,2.186 8.632,6.048c-0.486,-0.055 -0.324,0.287 -0.67,0.619c-0.269,0.258 -1.19,0.466 -0.869,1.337c0.435,1.181 0.59,1.879 0.636,2.87c0.012,0.252 1.264,-0.193 1.277,-0.194c0.17,0.058 0.479,1.583 0.129,2.89c-0.348,1.298 -1.014,1.847 -1.22,1.847c-0.288,-0.001 -0.587,0.205 -0.676,0.504c-1.187,3.993 -4.296,8.035 -7.944,8.035c-3.648,0 -6.758,-4.042 -7.944,-8.035c-0.089,-0.299 -0.364,-0.504 -0.676,-0.504z" fill="#faefde"></path><path d="M23.634,25.667c0,0 3.032,0 4.365,-3.333c2,0.667 2.667,2.667 12,2c0.925,-0.066 1.064,0.258 1.333,0c0.346,-0.332 -0.483,-1.341 0.003,-1.286c-1.265,-3.862 -4.354,-6.048 -8.63,-6.048h-0.705c-1.598,0 -3.532,0.545 -4.497,1.268c-0.122,0.092 -0.27,0.141 -0.422,0.141c-1.996,0 -3.314,1.343 -3.539,3.593c-0.164,1.643 -0.012,2.838 0.089,3.629c0.001,0.013 0.002,0.023 0.003,0.036z" fill="#ffa882"></path><path d="M32,4c-15.464,0 -28,12.536 -28,28c0,15.464 12.536,28 28,28c15.464,0 28,-12.536 28,-28c0,-15.464 -12.536,-28 -28,-28zM32,54c-12.15,0 -22,-9.85 -22,-22c0,-12.15 9.85,-22 22,-22c5.883,0 11.226,2.309 15.174,6.07c0.231,0.22 0.456,0.444 0.677,0.674c0.258,0.268 0.51,0.543 0.755,0.825c3.36,3.863 5.394,8.909 5.394,14.431c0,12.15 -9.85,22 -22,22z" fill="#f9e3ae"></path><path d="M32,54c-12.15,0 -22,-9.85 -22,-22h-1.661c-2.491,0 -4.361,2.25 -3.945,4.706c2.237,13.223 13.746,23.294 27.606,23.294c13.86,0 25.369,-10.071 27.606,-23.294c0.416,-2.456 -1.454,-4.706 -3.945,-4.706h-1.661c0,12.15 -9.85,22 -22,22z" fill="#f6d397"></path><path d="M32,3c-15.99,0 -29,13.009 -29,29c0,15.991 13.01,29 29,29c15.99,0 29,-13.009 29,-29c0,-15.991 -13.01,-29 -29,-29zM32,59c-14.888,0 -27,-12.112 -27,-27c0,-14.888 12.112,-27 27,-27c14.888,0 27,12.112 27,27c0,14.888 -12.112,27 -27,27z" fill="#8d6c9f"></path><path d="M32,51c-0.553,0 -1,0.448 -1,1v2c0,0.552 0.447,1 1,1c0.553,0 1,-0.448 1,-1v-2c0,-0.552 -0.447,-1 -1,-1zM38.013,51.077c-0.143,-0.533 -0.69,-0.849 -1.225,-0.707c-0.533,0.143 -0.85,0.691 -0.707,1.225l0.518,1.932c0.119,0.447 0.523,0.742 0.965,0.742c0.086,0 0.173,-0.011 0.26,-0.035c0.533,-0.143 0.85,-0.691 0.707,-1.225zM22.75,48.521c-0.479,-0.276 -1.09,-0.112 -1.366,0.366l-1,1.732c-0.276,0.478 -0.112,1.09 0.366,1.366c0.157,0.091 0.329,0.134 0.499,0.134c0.346,0 0.682,-0.179 0.867,-0.5l1,-1.732c0.277,-0.477 0.113,-1.089 -0.366,-1.366zM42.616,48.888c-0.277,-0.479 -0.89,-0.642 -1.366,-0.366c-0.479,0.276 -0.643,0.888 -0.366,1.366l1,1.732c0.186,0.321 0.521,0.5 0.867,0.5c0.17,0 0.342,-0.043 0.499,-0.134c0.479,-0.276 0.643,-0.888 0.366,-1.366zM27.212,50.37c-0.531,-0.142 -1.082,0.174 -1.225,0.707l-0.518,1.932c-0.143,0.534 0.174,1.082 0.707,1.225c0.087,0.023 0.174,0.035 0.26,0.035c0.441,0 0.846,-0.295 0.965,-0.742l0.518,-1.932c0.143,-0.534 -0.174,-1.083 -0.707,-1.225zM39.351,12.322c0.713,0.267 1.42,0.576 2.1,0.919c0.145,0.073 0.298,0.107 0.449,0.107c0.365,0 0.718,-0.201 0.894,-0.549c0.249,-0.493 0.051,-1.095 -0.442,-1.343c-0.744,-0.376 -1.519,-0.715 -2.301,-1.007c-0.516,-0.193 -1.093,0.069 -1.286,0.586c-0.195,0.518 0.068,1.093 0.586,1.287z" fill="#8d6c9f"></path><path d="M48.264,15.737c-0.658,-0.659 -1.363,-1.283 -2.094,-1.856c-0.437,-0.34 -1.064,-0.264 -1.404,0.17c-0.341,0.435 -0.265,1.063 0.17,1.404c0.668,0.523 1.312,1.094 1.914,1.696c7.328,7.329 8.076,18.76 2.286,26.952c-2.268,-3.851 -5.677,-6.641 -9.61,-7.996c0.537,-0.914 0.984,-1.884 1.316,-2.863c0.852,-0.396 1.588,-1.413 1.953,-2.774c0.544,-2.033 -0.002,-3.761 -1.298,-4.108c-0.023,-0.006 -0.048,-0.012 -0.073,-0.018c-0.082,-0.497 -0.21,-0.99 -0.402,-1.564c0.087,0.027 0.172,0.058 0.25,0.09c0.345,0.145 0.74,0.084 1.025,-0.155c0.286,-0.239 0.416,-0.617 0.336,-0.981c-1.099,-5.026 -4.828,-8.027 -9.975,-8.027h-0.658c-1.431,0 -3.52,0.417 -4.921,1.325c-2.545,0.141 -4.349,2.01 -4.631,4.841c-0.172,1.723 -0.01,3.001 0.088,3.765c0.029,0.231 0.066,0.52 0.064,0.582c-0.008,0.042 -0.015,0.083 -0.021,0.125c-0.026,0.006 -0.052,0.012 -0.076,0.019c-1.296,0.347 -1.842,2.075 -1.298,4.108c0.365,1.361 1.102,2.378 1.953,2.773c0.332,0.979 0.779,1.949 1.315,2.863c-3.932,1.355 -7.342,4.145 -9.61,7.995c-5.79,-8.192 -5.042,-19.623 2.286,-26.952c4.748,-4.748 11.548,-6.951 18.188,-5.886c0.543,0.088 1.059,-0.284 1.146,-0.829c0.088,-0.545 -0.284,-1.059 -0.829,-1.146c-7.269,-1.165 -14.718,1.246 -19.918,6.446c-8.967,8.967 -8.967,23.559 0,32.526c0.195,0.195 0.451,0.293 0.707,0.293c0.256,0 0.512,-0.098 0.707,-0.293c0.391,-0.391 0.391,-1.023 0,-1.414c-0.335,-0.335 -0.635,-0.691 -0.942,-1.043c2.105,-3.965 5.504,-6.791 9.442,-7.987c1.676,2.094 3.89,3.583 6.35,3.583c2.46,0 4.674,-1.489 6.35,-3.583c3.938,1.196 7.336,4.022 9.441,7.987c-0.307,0.351 -0.607,0.707 -0.942,1.042c-0.391,0.391 -0.391,1.023 0,1.414c0.195,0.195 0.451,0.293 0.707,0.293c0.256,0 0.512,-0.098 0.707,-0.293c8.967,-8.965 8.967,-23.557 0.001,-32.524zM32,39.403c-3.207,0 -6.048,-3.742 -7.094,-7.262c-0.126,-0.424 -0.459,-0.708 -0.901,-0.708c-0.001,0 -0.001,0 -0.002,0c-0.133,-0.048 -0.604,-0.504 -0.866,-1.479c-0.195,-0.73 -0.146,-1.27 -0.07,-1.543c0.271,0.118 0.585,0.109 0.853,-0.028c0.318,-0.164 0.526,-0.485 0.543,-0.843c0.016,-0.327 0.052,-0.654 0.107,-0.973c0.059,-0.333 0.014,-0.688 -0.049,-1.182c-0.093,-0.723 -0.231,-1.816 -0.082,-3.313c0.193,-1.937 1.27,-3.048 2.966,-3.048c0.216,0 0.427,-0.07 0.6,-0.2c0.836,-0.626 2.591,-1.117 3.996,-1.117h0.658c3.658,0 6.349,1.785 7.574,4.955c-0.366,0.031 -0.716,0.152 -0.995,0.42c-0.267,0.255 -0.656,0.839 -0.273,1.877c0.393,1.067 0.532,1.694 0.574,2.58c0.017,0.358 0.253,0.664 0.572,0.827c0.25,0.128 0.556,0.134 0.821,0.037c0.076,0.271 0.129,0.813 -0.068,1.55c-0.262,0.975 -0.733,1.432 -0.809,1.472c-0.001,0 -0.001,0 -0.002,0c-0.442,0 -0.833,0.291 -0.959,0.715c-1.046,3.521 -3.887,7.263 -7.094,7.263z" fill="#8d6c9f"></path><path d="M37.047,22.947h-1.682c-1.835,0 -3.678,-0.425 -5.328,-1.229l-1.029,-0.501c-0.747,-0.363 -1.654,-0.115 -2.11,0.579l-1.055,1.602c-0.304,0.461 -0.177,1.081 0.285,1.385c0.169,0.112 0.36,0.165 0.549,0.165c0.325,0 0.644,-0.158 0.836,-0.45l0.89,-1.351l0.759,0.37c1.922,0.937 4.067,1.431 6.204,1.431h1.682c0.553,0 1,-0.448 1,-1c0,-0.552 -0.448,-1.001 -1.001,-1.001z" fill="#8d6c9f"></path></g></g></svg>