<svg version="1.1" xmlns="http://www.w3.org/2000/svg" xmlns:xlink="http://www.w3.org/1999/xlink" width="100px" height="100px" viewBox="0,0,256,256"><g fill="none" fill-rule="none" stroke="none" stroke-width="1" stroke-linecap="butt" stroke-linejoin="miter" stroke-miterlimit="10" stroke-dasharray="" stroke-dashoffset="0" font-family="none" font-weight="none" font-size="none" text-anchor="none" style="mix-blend-mode: normal"><g transform="scale(2.56,2.56)"><path d="M87.215,56.71c1.135,-2.155 1.785,-4.605 1.785,-7.21c0,-6.621 -4.159,-12.257 -10.001,-14.478c0,-0.007 0.001,-0.014 0.001,-0.022c0,-11.598 -9.402,-21 -21,-21c-9.784,0 -17.981,6.701 -20.313,15.757c-1.476,-0.485 -3.049,-0.757 -4.687,-0.757c-7.692,0 -14.023,5.793 -14.89,13.252c-5.204,1.101 -9.11,5.717 -9.11,11.248c0,6.351 5.149,11.5 11.5,11.5c0.177,0 0.352,-0.012 0.526,-0.022c-0.004,0.175 -0.026,0.346 -0.026,0.522c0,11.322 9.178,20.5 20.5,20.5c6.437,0 12.175,-2.972 15.934,-7.614c2.178,2.225 5.206,3.614 8.566,3.614c4.65,0 8.674,-2.65 10.666,-6.518c1.052,0.335 2.171,0.518 3.334,0.518c6.075,0 11,-4.925 11,-11c0,-3.311 -1.47,-6.273 -3.785,-8.29z" fill="#c7ede6" fill-rule="nonzero"></path><path d="M29.875,73.5c0,0 3.64,0 6.125,0c2.485,0 4.5,-2.015 4.5,-4.5c0,-2.333 -1.782,-4.229 -4.055,-4.455c0.022,-0.181 0.055,-0.358 0.055,-0.545c0,-2.485 -2.015,-4.5 -4.5,-4.5c-1.438,0 -2.703,0.686 -3.527,1.736c-0.14,-2.636 -2.302,-4.736 -4.973,-4.736c-2.761,0 -5,2.239 -5,5c0,0.446 0.077,0.87 0.187,1.282c-0.642,-0.777 -1.601,-1.282 -2.687,-1.282c-1.781,0 -3.234,1.335 -3.455,3.055c-0.181,-0.022 -0.358,-0.055 -0.545,-0.055c-2.485,0 -4.5,2.015 -4.5,4.5c0,2.485 2.015,4.5 4.5,4.5c2.485,0 9.5,0 9.5,0h5.375v0.5h3z" fill="#fdfcef" fill-rule="nonzero"></path><path d="M23.5,56c-3.033,0 -5.5,2.467 -5.5,5.5c0,0.016 0,0.031 0,0.047c-0.602,-0.355 -1.29,-0.547 -2,-0.547c-1.831,0 -3.411,1.261 -3.858,3.005c-0.047,-0.003 -0.094,-0.005 -0.142,-0.005c-2.757,0 -5,2.243 -5,5c0,2.757 2.243,5 5,5h14.875c0.276,0 0.5,-0.224 0.5,-0.5c0,-0.276 -0.224,-0.5 -0.5,-0.5h-14.875c-2.206,0 -4,-1.794 -4,-4c0,-2.206 1.794,-4 4,-4c0.117,0 0.23,0.017 0.343,0.032l0.141,0.019c0.021,0.003 0.041,0.004 0.062,0.004c0.246,0 0.462,-0.185 0.495,-0.437c0.191,-1.493 1.463,-2.618 2.959,-2.618c0.885,0 1.723,0.401 2.301,1.1c0.098,0.118 0.241,0.182 0.386,0.182c0.078,0 0.156,-0.018 0.228,-0.056c0.209,-0.107 0.314,-0.346 0.254,-0.573c-0.115,-0.435 -0.169,-0.801 -0.169,-1.153c0,-2.481 2.019,-4.5 4.5,-4.5c2.381,0 4.347,1.872 4.474,4.263c0.011,0.208 0.15,0.387 0.349,0.45c0.05,0.016 0.101,0.024 0.152,0.024c0.15,0 0.296,-0.069 0.392,-0.192c0.771,-0.982 1.912,-1.545 3.133,-1.545c2.206,0 4,1.794 4,4c0,0.117 -0.017,0.23 -0.032,0.343l-0.019,0.141c-0.016,0.134 0.022,0.268 0.106,0.373c0.084,0.105 0.207,0.172 0.34,0.185c2.056,0.205 3.605,1.907 3.605,3.958c0,2.206 -1.794,4 -4,4h-6.125c-0.276,0 -0.5,0.224 -0.5,0.5c0,0.276 0.224,0.5 0.5,0.5h6.125c2.757,0 5,-2.243 5,-5c0,-2.397 -1.689,-4.413 -4.003,-4.877c0.002,-0.041 0.003,-0.082 0.003,-0.123c0,-2.757 -2.243,-5 -5,-5c-1.176,0 -2.293,0.416 -3.183,1.164c-0.598,-2.404 -2.762,-4.164 -5.317,-4.164z" fill="#472b29" fill-rule="nonzero"></path><path d="M22,63c-1.403,0 -2.609,0.999 -2.913,2.341c-0.367,-0.222 -0.786,-0.341 -1.212,-0.341c-1.202,0 -2.198,0.897 -2.353,2.068c-0.203,-0.046 -0.396,-0.068 -0.585,-0.068c-1.529,0 -2.811,1.2 -2.918,2.732c-0.009,0.138 0.095,0.258 0.232,0.268c0.006,0 0.012,0 0.018,0c0.13,0 0.24,-0.101 0.249,-0.232c0.089,-1.271 1.151,-2.268 2.419,-2.268c0.229,0 0.47,0.042 0.738,0.127c0.022,0.007 0.045,0.01 0.067,0.01c0.055,0 0.11,-0.02 0.156,-0.054c0.064,-0.046 0.102,-0.128 0.102,-0.208c0,-1.034 0.841,-1.875 1.875,-1.875c0.447,0 0.885,0.168 1.231,0.473c0.047,0.041 0.106,0.063 0.165,0.063c0.032,0 0.063,-0.006 0.093,-0.019c0.088,-0.035 0.148,-0.117 0.155,-0.212c0.104,-1.293 1.193,-2.305 2.481,-2.305c0.208,0 0.425,0.034 0.682,0.107c0.023,0.007 0.047,0.01 0.07,0.01c0.109,0 0.207,-0.073 0.239,-0.182c0.038,-0.133 -0.039,-0.271 -0.172,-0.309c-0.302,-0.086 -0.563,-0.126 -0.819,-0.126z" fill="#472b29" fill-rule="nonzero"></path><path d="M35.883,64.5c-1.326,0 -2.508,0.897 -2.874,2.182c-0.038,0.133 0.039,0.271 0.172,0.309c0.024,0.006 0.047,0.009 0.069,0.009c0.109,0 0.209,-0.072 0.24,-0.182c0.305,-1.07 1.289,-1.818 2.393,-1.818c0.117,0 0.23,0.014 0.342,0.029c0.012,0.002 0.023,0.003 0.035,0.003c0.121,0 0.229,-0.092 0.246,-0.217c0.019,-0.137 -0.077,-0.263 -0.214,-0.281c-0.134,-0.018 -0.27,-0.034 -0.409,-0.034z" fill="#472b29" fill-rule="nonzero"></path><path d="M82.405,68h-9.905c-0.276,0 -0.5,-0.224 -0.5,-0.5c0,-0.276 0.224,-0.5 0.5,-0.5h9.905c0.276,0 0.5,0.224 0.5,0.5c0,0.276 -0.223,0.5 -0.5,0.5z" fill="#ffffff" fill-rule="nonzero"></path><path d="M85.5,68h-1c-0.276,0 -0.5,-0.224 -0.5,-0.5c0,-0.276 0.224,-0.5 0.5,-0.5h1c0.276,0 0.5,0.224 0.5,0.5c0,0.276 -0.223,0.5 -0.5,0.5z" fill="#ffffff" fill-rule="nonzero"></path><path d="M90.491,70h-8.991c-0.276,0 -0.5,-0.224 -0.5,-0.5c0,-0.276 0.224,-0.5 0.5,-0.5h8.991c0.276,0 0.5,0.224 0.5,0.5c0,0.276 -0.224,0.5 -0.5,0.5z" fill="#ffffff" fill-rule="nonzero"></path><path d="M79.5,70h-1c-0.276,0 -0.5,-0.224 -0.5,-0.5c0,-0.276 0.224,-0.5 0.5,-0.5h1c0.276,0 0.5,0.224 0.5,0.5c0,0.276 -0.223,0.5 -0.5,0.5z" fill="#ffffff" fill-rule="nonzero"></path><path d="M76.5,70h-2c-0.276,0 -0.5,-0.224 -0.5,-0.5c0,-0.276 0.224,-0.5 0.5,-0.5h2c0.276,0 0.5,0.224 0.5,0.5c0,0.276 -0.223,0.5 -0.5,0.5z" fill="#ffffff" fill-rule="nonzero"></path><path d="M82.5,72h-2c-0.276,0 -0.5,-0.224 -0.5,-0.5c0,-0.276 0.224,-0.5 0.5,-0.5h2c0.276,0 0.5,0.224 0.5,0.5c0,0.276 -0.224,0.5 -0.5,0.5z" fill="#ffffff" fill-rule="nonzero"></path><path d="M85.5,63c-0.177,0 -0.823,0 -1,0c-0.276,0 -0.5,0.224 -0.5,0.5c0,0.276 0.224,0.5 0.5,0.5c0.177,0 0.823,0 1,0c0.276,0 0.5,-0.224 0.5,-0.5c0,-0.276 -0.224,-0.5 -0.5,-0.5z" fill="#ffffff" fill-rule="nonzero"></path><path d="M85.5,65c-0.177,0 -4.823,0 -5,0c-0.276,0 -0.5,0.224 -0.5,0.5c0,0.276 0.224,0.5 0.5,0.5c0.177,0 4.823,0 5,0c0.276,0 0.5,-0.224 0.5,-0.5c0,-0.276 -0.224,-0.5 -0.5,-0.5z" fill="#ffffff" fill-rule="nonzero"></path><path d="M90.5,67c-0.177,0 -2.823,0 -3,0c-0.276,0 -0.5,0.224 -0.5,0.5c0,0.276 0.224,0.5 0.5,0.5c0.177,0 2.823,0 3,0c0.276,0 0.5,-0.224 0.5,-0.5c0,-0.276 -0.224,-0.5 -0.5,-0.5z" fill="#ffffff" fill-rule="nonzero"></path><path d="M79.5,34.5c0,0 1.567,0 3.5,0c1.933,0 3.5,-1.567 3.5,-3.5c0,-1.781 -1.335,-3.234 -3.055,-3.455c0.028,-0.179 0.055,-0.358 0.055,-0.545c0,-1.933 -1.567,-3.5 -3.5,-3.5c-1.032,0 -1.95,0.455 -2.59,1.165c-0.384,-1.808 -1.987,-3.165 -3.91,-3.165c-2.209,0 -4,1.791 -4,4c0,0.191 0.03,0.374 0.056,0.558c-0.428,-0.344 -0.964,-0.558 -1.556,-0.558c-1.228,0 -2.245,0.887 -2.455,2.055c-0.179,-0.028 -0.358,-0.055 -0.545,-0.055c-1.933,0 -3.5,1.567 -3.5,3.5c0,1.933 1.567,3.5 3.5,3.5c1.933,0 7.5,0 7.5,0v0.5h7z" fill="#fdfcef" fill-rule="nonzero"></path><path d="M81.25,30c-0.138,0 -0.25,-0.112 -0.25,-0.25c0,-1.223 0.995,-2.218 2.218,-2.218c0.034,0.009 0.737,-0.001 1.244,0.136c0.133,0.036 0.212,0.173 0.176,0.306c-0.036,0.134 -0.173,0.213 -0.306,0.176c-0.444,-0.12 -1.1,-0.12 -1.113,-0.118c-0.948,0 -1.719,0.771 -1.719,1.718c0,0.138 -0.112,0.25 -0.25,0.25z" fill="#472b29" fill-rule="nonzero"></path><circle cx="74.5" cy="34.5" r="0.5" fill="#472b29" fill-rule="nonzero"></circle><path d="M83,35h-3.5c-0.276,0 -0.5,-0.224 -0.5,-0.5c0,-0.276 0.224,-0.5 0.5,-0.5h3.5c1.654,0 3,-1.346 3,-3c0,-1.496 -1.125,-2.768 -2.618,-2.959c-0.134,-0.018 -0.255,-0.088 -0.336,-0.196c-0.081,-0.108 -0.115,-0.244 -0.094,-0.377c0.023,-0.154 0.048,-0.308 0.048,-0.468c0,-1.654 -1.346,-3 -3,-3c-0.85,0 -1.638,0.355 -2.219,1c-0.125,0.139 -0.321,0.198 -0.5,0.148c-0.182,-0.049 -0.321,-0.195 -0.36,-0.379c-0.341,-1.604 -1.78,-2.769 -3.421,-2.769c-1.93,0 -3.5,1.57 -3.5,3.5c0,0.143 0.021,0.28 0.041,0.418c0.029,0.203 -0.063,0.438 -0.242,0.54c-0.179,0.102 -0.396,0.118 -0.556,-0.01c-0.365,-0.293 -0.794,-0.448 -1.243,-0.448c-0.966,0 -1.792,0.691 -1.963,1.644c-0.048,0.267 -0.296,0.446 -0.569,0.405c-0.154,-0.024 -0.308,-0.049 -0.468,-0.049c-1.654,0 -3,1.346 -3,3c0,1.654 1.346,3 3,3h7.5c0.276,0 0.5,0.224 0.5,0.5c0,0.276 -0.224,0.5 -0.5,0.5h-7.5c-2.206,0 -4,-1.794 -4,-4c0,-2.206 1.794,-4 4,-4c0.059,0 0.116,0.002 0.174,0.006c0.414,-1.186 1.537,-2.006 2.826,-2.006c0.349,0 0.689,0.061 1.011,0.18c0.165,-2.333 2.115,-4.18 4.489,-4.18c1.831,0 3.466,1.127 4.153,2.774c0.68,-0.498 1.502,-0.774 2.347,-0.774c2.206,0 4,1.794 4,4c0,0.048 -0.001,0.095 -0.004,0.142c1.743,0.448 3.004,2.027 3.004,3.858c0,2.206 -1.794,4 -4,4z" fill="#472b29" fill-rule="nonzero"></path><path d="M77.5,34c-0.159,0 -0.841,0 -1,0c-0.276,0 -0.5,0.224 -0.5,0.5c0,0.276 0.224,0.5 0.5,0.5c0.159,0 0.841,0 1,0c0.276,0 0.5,-0.224 0.5,-0.5c0,-0.276 -0.224,-0.5 -0.5,-0.5z" fill="#472b29" fill-rule="nonzero"></path><g fill="#ffffff" fill-rule="nonzero"><path d="M28.5,34h-10c-0.276,0 -0.5,-0.224 -0.5,-0.5c0,-0.276 0.224,-0.5 0.5,-0.5h10c0.276,0 0.5,0.224 0.5,0.5c0,0.276 -0.224,0.5 -0.5,0.5z"></path><path d="M32.5,34h-2c-0.276,0 -0.5,-0.224 -0.5,-0.5c0,-0.276 0.224,-0.5 0.5,-0.5h2c0.276,0 0.5,0.224 0.5,0.5c0,0.276 -0.224,0.5 -0.5,0.5z"></path><path d="M37.5,36h-10c-0.276,0 -0.5,-0.224 -0.5,-0.5c0,-0.276 0.224,-0.5 0.5,-0.5h10c0.276,0 0.5,0.224 0.5,0.5c0,0.276 -0.223,0.5 -0.5,0.5z"></path><path d="M25.5,36h-1c-0.276,0 -0.5,-0.224 -0.5,-0.5c0,-0.276 0.224,-0.5 0.5,-0.5h1c0.276,0 0.5,0.224 0.5,0.5c0,0.276 -0.224,0.5 -0.5,0.5z"></path><path d="M22.47,36h-1.97c-0.276,0 -0.5,-0.224 -0.5,-0.5c0,-0.276 0.224,-0.5 0.5,-0.5h1.97c0.276,0 0.5,0.224 0.5,0.5c0,0.276 -0.224,0.5 -0.5,0.5z"></path><path d="M31.5,32h-5c-0.276,0 -0.5,-0.224 -0.5,-0.5c0,-0.276 0.224,-0.5 0.5,-0.5h5c0.276,0 0.5,0.224 0.5,0.5c0,0.276 -0.223,0.5 -0.5,0.5z"></path><path d="M28.5,38h-2c-0.276,0 -0.5,-0.224 -0.5,-0.5c0,-0.276 0.224,-0.5 0.5,-0.5h2c0.276,0 0.5,0.224 0.5,0.5c0,0.276 -0.224,0.5 -0.5,0.5z"></path></g><g fill-rule="nonzero"><path d="M29.067,67.3c-0.754,0 -1.367,-0.623 -1.367,-1.388v-24.216c0,-0.823 0.632,-0.996 1.163,-0.996h8.114c0.157,0 0.333,-0.06 0.456,-0.157c0.676,-0.507 1.837,-1.389 3.262,-2.471c3.594,-2.73 9.026,-6.855 12.613,-9.479c0.24,-0.143 0.545,-0.232 0.858,-0.232c1.006,0 2.097,0.929 2.594,2.209c0.235,0.606 0.645,2.14 -0.628,3.304l-4.307,4.578c-0.19,0.202 -0.25,0.542 -0.142,0.797c0.11,0.258 0.401,0.451 0.682,0.451h25.635c1.82,0 3.3,1.48 3.3,3.3c0,1.82 -1.48,3.3 -3.3,3.3h-10.379c-0.292,0 -0.553,0.181 -0.655,0.454c-0.103,0.273 -0.025,0.581 0.194,0.773c0.725,0.634 1.14,1.535 1.14,2.473c0,1.386 -0.887,2.631 -2.207,3.097c-0.246,0.087 -0.423,0.303 -0.459,0.561c-0.037,0.258 0.073,0.515 0.284,0.667c0.865,0.623 1.382,1.623 1.382,2.675c0,1.197 -0.665,2.303 -1.735,2.885c-0.225,0.123 -0.366,0.358 -0.366,0.615c0,0.257 0.141,0.492 0.366,0.615c1.07,0.582 1.735,1.688 1.735,2.885c0,1.495 -1.018,2.803 -2.475,3.181c-0.022,0.005 -0.043,0.012 -0.063,0.02c-0.305,0.07 -0.538,0.1 -0.761,0.1h-34.934z" fill-opacity="0.74118" fill="#f6cca4"></path><path d="M54.165,27.661v1.4c0.705,0 1.558,0.774 1.942,1.763c0.227,0.585 0.471,1.693 -0.449,2.534c-0.026,0.024 -0.051,0.049 -0.075,0.074l-4.263,4.535c-0.397,0.418 -0.507,1.03 -0.28,1.561c0.221,0.514 0.764,0.873 1.324,0.873h5.53h5.106h2h13c1.434,0 2.6,1.167 2.6,2.6c0,1.433 -1.166,2.6 -2.6,2.6h-10.38c-0.583,0 -1.106,0.362 -1.311,0.908c-0.205,0.546 -0.05,1.162 0.389,1.546c0.582,0.507 0.902,1.198 0.902,1.945c0,1.09 -0.699,2.069 -1.74,2.438c-0.491,0.174 -0.846,0.606 -0.919,1.122c-0.073,0.516 0.146,1.03 0.569,1.334c0.692,0.499 1.09,1.266 1.09,2.106c0,0.94 -0.525,1.811 -1.37,2.27c-0.45,0.245 -0.731,0.717 -0.731,1.23c0,0.513 0.28,0.985 0.731,1.23c0.845,0.459 1.37,1.33 1.37,2.27c0,1.176 -0.802,2.206 -1.951,2.503c-0.017,0.004 -0.034,0.009 -0.05,0.014c-0.232,0.057 -0.423,0.083 -0.599,0.083h-5.059h-5.941h-0.995h-4.313h-18.625c-0.368,0 -0.667,-0.309 -0.667,-0.688v-24.216c0,-0.172 0,-0.296 0.463,-0.296h8.114c0.303,0 0.622,-0.105 0.864,-0.288c0.688,-0.517 1.848,-1.397 3.272,-2.479c3.575,-2.715 8.968,-6.811 12.552,-9.434c0.165,-0.093 0.329,-0.138 0.5,-0.138v-1.4M54.165,27.661c-0.424,0 -0.854,0.113 -1.271,0.367c-4.993,3.652 -13.444,10.125 -15.893,11.964c-0.007,0.006 -0.015,0.008 -0.023,0.008h-8.114c-1.14,0 -1.864,0.644 -1.864,1.696v24.216c0,1.153 0.925,2.088 2.067,2.088h18.625h4.313h0.995h5.941h5.059c0.338,0 0.661,-0.055 0.975,-0.134c0.006,-0.001 0.021,-0.002 0.025,-0.003v-0.005c1.722,-0.446 3,-1.997 3,-3.858c0,-1.518 -0.855,-2.822 -2.101,-3.5c1.246,-0.678 2.101,-1.982 2.101,-3.5c0,-1.339 -0.664,-2.517 -1.674,-3.243c1.554,-0.549 2.674,-2.015 2.674,-3.757c0,-1.202 -0.541,-2.267 -1.38,-3h10.38c2.209,0 4,-1.791 4,-4c0,-2.209 -1.791,-4 -4,-4h-13h-2h-5.105h-5.53c-0.036,0 -0.054,-0.043 -0.03,-0.069l4.268,-4.541c2.583,-2.362 0.192,-6.728 -2.438,-6.729z" fill="#472b29"></path></g><g fill="#ffffff" fill-rule="evenodd"><path d="M29.437,66.733h7.915v-25.316h-7.915c-0.541,0 -0.979,0.438 -0.979,0.979v23.358c0,0.54 0.439,0.979 0.979,0.979z"></path></g><g fill="#472b29" fill-rule="nonzero"><path d="M37.5,59c-0.276,0 -0.5,-0.224 -0.5,-0.5v-17c0,-0.276 0.224,-0.5 0.5,-0.5c0.276,0 0.5,0.224 0.5,0.5v17c0,0.276 -0.224,0.5 -0.5,0.5z"></path></g><g fill="#472b29" fill-rule="nonzero"><path d="M37.5,63c-0.276,0 -0.5,-0.224 -0.5,-0.5v-2c0,-0.276 0.224,-0.5 0.5,-0.5c0.276,0 0.5,0.224 0.5,0.5v2c0,0.276 -0.224,0.5 -0.5,0.5z"></path></g><g fill="#472b29" fill-rule="nonzero"><path d="M37.5,67c-0.276,0 -0.5,-0.224 -0.5,-0.5v-2c0,-0.276 0.224,-0.5 0.5,-0.5c0.276,0 0.5,0.224 0.5,0.5v2c0,0.276 -0.224,0.5 -0.5,0.5z"></path></g><g fill="#472b29" fill-rule="nonzero"><path d="M33,64c-1.103,0 -2,-0.897 -2,-2c0,-1.103 0.897,-2 2,-2c1.103,0 2,0.897 2,2c0,1.103 -0.897,2 -2,2zM33,61c-0.551,0 -1,0.449 -1,1c0,0.551 0.449,1 1,1c0.551,0 1,-0.449 1,-1c0,-0.551 -0.449,-1 -1,-1z"></path></g><g fill="#472b29" fill-rule="nonzero"><path d="M52.156,40.403h-3.635c-0.387,0 -0.7,-0.313 -0.7,-0.7c0,-0.387 0.313,-0.7 0.7,-0.7h3.635c0.387,0 0.7,0.313 0.7,0.7c0,0.387 -0.313,0.7 -0.7,0.7z"></path></g><g fill="#472b29" fill-rule="nonzero"><path d="M62.5,51h-3c-0.276,0 -0.5,-0.224 -0.5,-0.5c0,-0.276 0.224,-0.5 0.5,-0.5h3c0.276,0 0.5,0.224 0.5,0.5c0,0.276 -0.224,0.5 -0.5,0.5z"></path></g><g fill="#472b29" fill-rule="nonzero"><path d="M62.5,58h-3c-0.276,0 -0.5,-0.224 -0.5,-0.5c0,-0.276 0.224,-0.5 0.5,-0.5h3c0.276,0 0.5,0.224 0.5,0.5c0,0.276 -0.224,0.5 -0.5,0.5z"></path></g><g fill="#472b29" fill-rule="nonzero"><path d="M62.5,64h-3c-0.276,0 -0.5,-0.224 -0.5,-0.5c0,-0.276 0.224,-0.5 0.5,-0.5h3c0.276,0 0.5,0.224 0.5,0.5c0,0.276 -0.224,0.5 -0.5,0.5z"></path></g><g fill="#472b29" fill-rule="nonzero"><path d="M62.5,45h-3c-0.276,0 -0.5,-0.224 -0.5,-0.5c0,-0.276 0.224,-0.5 0.5,-0.5h3c0.276,0 0.5,0.224 0.5,0.5c0,0.276 -0.224,0.5 -0.5,0.5z"></path></g><g fill="#c29b67" fill-rule="nonzero"><path d="M77,41.081v3.999c1.102,0 1.995,-0.895 1.995,-2c0,-1.104 -0.893,-1.999 -1.995,-1.999z"></path></g></g></g></svg>