<svg version="1.1" xmlns="http://www.w3.org/2000/svg" xmlns:xlink="http://www.w3.org/1999/xlink" width="48px" height="48px" viewBox="0,0,256,256"><defs><linearGradient x1="22.255" y1="18.269" x2="28.545" y2="43.563" gradientUnits="userSpaceOnUse" id="color-1"><stop offset="0" stop-color="#2fc1f6"></stop><stop offset="1" stop-color="#1ea2e4"></stop></linearGradient><linearGradient x1="42" y1="4.513" x2="42" y2="16.282" gradientUnits="userSpaceOnUse" id="color-2"><stop offset="0" stop-color="#2fc1f6"></stop><stop offset="1" stop-color="#1ea2e4"></stop></linearGradient><linearGradient x1="6" y1="4.513" x2="6" y2="16.282" gradientUnits="userSpaceOnUse" id="color-3"><stop offset="0" stop-color="#2fc1f6"></stop><stop offset="1" stop-color="#1ea2e4"></stop></linearGradient><linearGradient x1="9" y1="8" x2="39" y2="8" gradientUnits="userSpaceOnUse" id="color-4"><stop offset="0" stop-color="#0362b0"></stop><stop offset="0.112" stop-color="#036abd"></stop><stop offset="0.258" stop-color="#036fc5"></stop><stop offset="0.5" stop-color="#0370c8"></stop><stop offset="0.742" stop-color="#036fc5"></stop><stop offset="0.888" stop-color="#036abd"></stop><stop offset="1" stop-color="#0362b0"></stop></linearGradient></defs><g fill="none" fill-rule="nonzero" stroke="none" stroke-width="1" stroke-linecap="butt" stroke-linejoin="miter" stroke-miterlimit="10" stroke-dasharray="" stroke-dashoffset="0" font-family="none" font-weight="none" font-size="none" text-anchor="none" style="mix-blend-mode: normal"><g transform="scale(5.33333,5.33333)"><path d="M31.789,24.789l-6.728,-6.728c-0.586,-0.586 -1.536,-0.586 -2.121,0l-6.728,6.728c-0.448,0.447 -0.131,1.211 0.501,1.211h4.287v16c0,0.552 0.448,1 1,1h4c0.552,0 1,-0.448 1,-1v-16h4.287c0.632,0 0.949,-0.764 0.502,-1.211z" fill="url(#color-1)"></path><path d="M43.828,9.828l-4.828,-4.828v10c0,0.552 0.448,1 1,1h4c0.552,0 1,-0.448 1,-1v-2.343c0,-1.061 -0.421,-2.078 -1.172,-2.829z" fill="url(#color-2)"></path><path d="M9,5l-4.828,4.828c-0.751,0.751 -1.172,1.768 -1.172,2.829v2.343c0,0.552 0.448,1 1,1h4c0.552,0 1,-0.448 1,-1z" fill="url(#color-3)"></path><rect x="9" y="5" width="30" height="6" fill="url(#color-4)"></rect></g></g></svg>